<svg width="197" height="217" viewBox="0 0 197 217" fill="none" xmlns="http://www.w3.org/2000/svg">
<mask id="mask0" mask-type="alpha" maskUnits="userSpaceOnUse" x="0" y="0" width="197" height="217">
<rect width="197" height="217" fill="#C4C4C4"/>
</mask>
<g mask="url(#mask0)">
<path d="M196.301 5.77342C197.997 7.81284 199.692 9.82772 201.387 11.8671C202.616 13.3414 200.331 15.258 199.102 13.7837C197.407 11.7443 195.712 9.72941 194.016 7.68998C192.788 6.2157 195.073 4.32371 196.301 5.77342Z" fill="#FA5F1C"/>
<path d="M197.972 26.3889C200.527 29.4358 203.058 32.4826 205.614 35.5295C206.842 37.0038 204.557 38.9203 203.329 37.446C200.773 34.3992 198.242 31.3523 195.687 28.3055C194.458 26.8312 196.743 24.9147 197.972 26.3889Z" fill="#FA5F1C"/>
<path d="M183.917 65.3345C186.252 68.1356 188.586 70.9367 190.92 73.7133C192.149 75.1875 189.864 77.1041 188.635 75.6298C186.301 72.8287 183.966 70.0276 181.632 67.2511C180.404 65.7768 182.689 63.8602 183.917 65.3345Z" fill="#FA5F1C"/>
<path d="M150.82 56.7345C151.458 57.4962 152.097 58.2579 152.736 59.0196C153.965 60.4939 151.68 62.4105 150.451 60.9362C149.812 60.1745 149.173 59.4128 148.534 58.6511C147.306 57.1768 149.591 55.2602 150.82 56.7345Z" fill="#FA5F1C"/>
<path d="M196.031 87.5961C198.144 90.1269 200.282 92.6823 202.395 95.2132C203.623 96.6874 201.338 98.604 200.11 97.1297C197.997 94.5989 195.859 92.0435 193.746 89.5127C192.517 88.0384 194.802 86.1218 196.031 87.5961Z" fill="#FA5F1C"/>
<path d="M155.267 7.0512C153.793 8.27977 151.876 5.99457 153.35 4.766C154.825 3.53743 156.741 5.82263 155.267 7.0512Z" fill="#FA5F1C"/>
<path d="M196.817 47.4465C195.343 48.6751 193.426 46.3899 194.901 45.1613C196.375 43.9328 198.292 46.218 196.817 47.4465Z" fill="#FA5F1C"/>
<path d="M131.31 14.7912C133.865 17.838 136.396 20.8849 138.952 23.9317C140.18 25.406 137.895 27.3226 136.667 25.8483C134.111 22.8014 131.58 19.7546 129.025 16.7077C127.772 15.2334 130.057 13.3169 131.31 14.7912Z" fill="#FA5F1C"/>
<path d="M165.145 22.7523C166.84 24.7917 168.536 26.8066 170.231 28.846C171.46 30.3203 169.174 32.2368 167.946 30.7626C166.25 28.7231 164.555 26.7083 162.86 24.6688C161.631 23.1946 163.916 21.278 165.145 22.7523Z" fill="#FA5F1C"/>
<path d="M140.573 -2.01561C141.212 -1.25389 141.851 -0.4922 142.49 0.269513C143.718 1.74379 141.433 3.66036 140.205 2.18608C139.566 1.42436 138.927 0.662669 138.288 -0.0990429C137.035 -1.57333 139.32 -3.48989 140.573 -2.01561Z" fill="#FA5F1C"/>
<path d="M179.494 4.27468C180.551 5.55239 181.608 6.8055 182.689 8.08321C183.917 9.55749 181.632 11.4741 180.404 9.99977C179.347 8.72206 178.29 7.46895 177.209 6.19124C175.981 4.71696 178.266 2.80039 179.494 4.27468Z" fill="#FA5F1C"/>
<path d="M155.636 34.5957C157.331 36.6351 159.026 38.65 160.722 40.6894C161.95 42.1637 159.665 44.0802 158.437 42.606C156.741 40.5665 155.046 38.5516 153.35 36.5122C152.122 35.0379 154.407 33.1214 155.636 34.5957Z" fill="#FA5F1C"/>
<path d="M150.77 17.9364C151.827 19.2141 152.884 20.4672 153.965 21.7449C155.193 23.2192 152.908 25.1357 151.68 23.6615C150.623 22.3837 149.566 21.1306 148.485 19.8529C147.257 18.3786 149.542 16.4621 150.77 17.9364Z" fill="#FA5F1C"/>
<path d="M111.825 3.88149C113.52 5.92091 115.216 7.93579 116.911 9.97521C118.14 11.4495 115.855 13.3661 114.626 11.8918C112.931 9.85236 111.235 7.83748 109.54 5.79805C108.311 4.32377 110.596 2.40721 111.825 3.88149Z" fill="#FA5F1C"/>
<path d="M178.29 49.3139C179.347 50.5916 180.404 51.8448 181.485 53.1225C182.713 54.5968 180.428 56.5133 179.2 55.039C178.143 53.7613 177.086 52.5081 176.005 51.2304C174.777 49.7561 177.062 47.8396 178.29 49.3139Z" fill="#FA5F1C"/>
<path d="M146.053 47.1516C144.578 48.3802 142.662 46.095 144.136 44.8665C145.61 43.6379 147.527 45.923 146.053 47.1516Z" fill="#FA5F1C"/>
<path d="M113.496 24.4723C116.051 27.5192 118.582 30.566 121.137 33.6129C122.366 35.0871 120.081 37.0037 118.852 35.5294C116.297 32.4826 113.766 29.4357 111.211 26.3889C109.982 24.9146 112.267 22.998 113.496 24.4723Z" fill="#FA5F1C"/>
<path d="M179.568 137.623C177.234 134.822 174.9 132.021 172.565 129.245C171.337 127.77 173.622 125.854 174.85 127.328C177.185 130.129 179.519 132.93 181.853 135.707C183.082 137.181 180.797 139.098 179.568 137.623Z" fill="#FA5F1C"/>
<path d="M157.528 115.902C155.832 113.863 154.137 111.848 152.441 109.809C151.213 108.334 153.498 106.418 154.726 107.892C156.422 109.932 158.117 111.946 159.813 113.986C161.041 115.46 158.756 117.377 157.528 115.902Z" fill="#FA5F1C"/>
<path d="M171.066 146.027C169.568 144.258 168.093 142.464 166.594 140.695C165.366 139.221 167.651 137.304 168.88 138.778C170.378 140.547 171.853 142.341 173.352 144.11C174.58 145.585 172.295 147.501 171.066 146.027Z" fill="#FA5F1C"/>
<path d="M125.462 119.367C124.184 117.843 122.907 116.32 121.629 114.797C120.4 113.322 122.685 111.406 123.914 112.88C125.192 114.403 126.469 115.927 127.747 117.45C129 118.925 126.715 120.841 125.462 119.367Z" fill="#FA5F1C"/>
<path d="M158.363 161.826C156.864 160.057 155.39 158.263 153.891 156.494C152.662 155.02 154.948 153.103 156.176 154.578C157.675 156.347 159.149 158.141 160.648 159.91C161.877 161.384 159.592 163.301 158.363 161.826Z" fill="#FA5F1C"/>
<path d="M145.34 126.099C147.036 128.139 148.731 130.154 150.426 132.193C151.655 133.667 149.37 135.584 148.141 134.11C146.446 132.07 144.751 130.055 143.055 128.016C141.802 126.517 144.087 124.625 145.34 126.099Z" fill="#FA5F1C"/>
<path d="M191.387 171.114C189.913 172.343 187.996 170.058 189.47 168.829C190.945 167.601 192.861 169.886 191.387 171.114Z" fill="#FA5F1C"/>
<path d="M167.43 178.854C169.985 181.901 172.516 184.948 175.072 187.995C176.3 189.469 174.015 191.386 172.786 189.911C170.231 186.865 167.7 183.818 165.145 180.771C163.892 179.297 166.177 177.38 167.43 178.854Z" fill="#FA5F1C"/>
<path d="M176.669 162.047C177.308 162.809 177.946 163.571 178.585 164.333C179.814 165.807 177.529 167.723 176.3 166.249C175.661 165.487 175.022 164.726 174.384 163.964C173.155 162.49 175.44 160.573 176.669 162.047Z" fill="#FA5F1C"/>
<path d="M191.756 198.659C193.451 200.698 195.146 202.713 196.842 204.752C198.07 206.227 195.785 208.143 194.557 206.669C192.861 204.63 191.166 202.615 189.47 200.575C188.217 199.101 190.502 197.184 191.756 198.659Z" fill="#FA5F1C"/>
<path d="M193.082 152.219C193.942 153.226 194.778 154.258 195.638 155.266C196.866 156.74 194.581 158.656 193.353 157.182C192.493 156.175 191.657 155.143 190.797 154.135C189.569 152.661 191.854 150.744 193.082 152.219Z" fill="#FA5F1C"/>
<path d="M186.89 181.999C187.947 183.277 189.003 184.53 190.085 185.808C191.313 187.282 189.028 189.199 187.799 187.724C186.743 186.447 185.686 185.194 184.605 183.916C183.377 182.442 185.662 180.525 186.89 181.999Z" fill="#FA5F1C"/>
<path d="M123.472 94.5008C121.997 95.7294 120.081 93.4442 121.555 92.2156C123.029 90.987 124.946 93.2722 123.472 94.5008Z" fill="#FA5F1C"/>
<path d="M173.917 98.3092C176.472 101.356 179.003 104.403 181.558 107.45C182.787 108.924 180.502 110.841 179.273 109.366C176.718 106.319 174.187 103.273 171.632 100.226C170.403 98.7515 172.688 96.8349 173.917 98.3092Z" fill="#FA5F1C"/>
<path d="M127.035 141.383C128.73 143.422 130.425 145.437 132.121 147.477C133.349 148.951 131.064 150.867 129.836 149.393C128.14 147.354 126.445 145.339 124.749 143.299C123.521 141.825 125.806 139.909 127.035 141.383Z" fill="#FA5F1C"/>
<path d="M139.001 102.241C137.526 103.469 135.61 101.184 137.084 99.9556C138.558 98.727 140.475 101.012 139.001 102.241Z" fill="#FA5F1C"/>
<path d="M140.033 74.819C142.146 77.3498 144.284 79.9053 146.397 82.4361C147.625 83.9104 145.34 85.827 144.112 84.3527C141.998 81.8218 139.861 79.2664 137.748 76.7356C136.519 75.2613 138.804 73.3447 140.033 74.819Z" fill="#FA5F1C"/>
<path d="M100.768 95.9995C103.102 98.8007 105.436 101.602 107.771 104.378C108.999 105.853 106.714 107.769 105.485 106.295C103.151 103.494 100.817 100.693 98.4826 97.9161C97.2294 96.4418 99.5146 94.5252 100.768 95.9995Z" fill="#FA5F1C"/>
<path d="M138.558 99.3903C141.753 103.199 144.922 107.007 148.117 110.816C149.345 112.29 147.06 114.207 145.832 112.733C142.637 108.924 139.468 105.115 136.273 101.307C135.02 99.808 137.305 97.916 138.558 99.3903Z" fill="#FA5F1C"/>
<path d="M119.196 87.0556C122.391 90.8641 125.56 94.6727 128.754 98.4813C129.983 99.9555 127.698 101.872 126.469 100.398C123.275 96.5893 120.105 92.7807 116.911 88.9721C115.683 87.4979 117.968 85.6059 119.196 87.0556Z" fill="#FA5F1C"/>
<path d="M147.945 167.945C149.64 169.984 151.336 171.999 153.031 174.038C154.26 175.513 151.974 177.429 150.746 175.955C149.05 173.915 147.355 171.901 145.66 169.861C144.431 168.387 146.716 166.47 147.945 167.945Z" fill="#FA5F1C"/>
<path d="M186.669 121.308C187.308 122.07 187.947 122.832 188.586 123.593C189.814 125.068 187.529 126.984 186.301 125.51C185.662 124.748 185.023 123.986 184.384 123.225C183.156 121.75 185.441 119.834 186.669 121.308Z" fill="#FA5F1C"/>
<path d="M159.714 83.6402C158.24 84.8687 156.324 82.5836 157.798 81.3551C159.272 80.1265 161.189 82.4116 159.714 83.6402Z" fill="#FA5F1C"/>
<path d="M67.6701 87.3996C68.3089 88.1613 68.9478 88.923 69.5867 89.6847C70.8152 91.159 68.5301 93.0755 67.3015 91.6012C66.6627 90.8395 66.0238 90.0778 65.385 89.3161C64.1564 87.8418 66.4415 85.9253 67.6701 87.3996Z" fill="#FA5F1C"/>
<path d="M112.881 118.237C114.995 120.768 117.132 123.323 119.245 125.854C120.474 127.328 118.189 129.245 116.96 127.77C114.847 125.239 112.709 122.684 110.596 120.153C109.368 118.679 111.653 116.762 112.881 118.237Z" fill="#FA5F1C"/>
<path d="M142.17 137.795C143.669 139.565 145.144 141.358 146.642 143.127C147.871 144.602 145.586 146.518 144.357 145.044C142.858 143.275 141.384 141.481 139.885 139.712C138.657 138.238 140.942 136.321 142.17 137.795Z" fill="#FA5F1C"/>
<path d="M182.148 211.215C180.674 212.443 178.757 210.158 180.232 208.93C181.73 207.701 183.622 209.986 182.148 211.215Z" fill="#FA5F1C"/>
<path d="M149.616 188.56C152.171 191.607 154.702 194.654 157.257 197.7C158.486 199.175 156.201 201.091 154.972 199.617C152.417 196.57 149.886 193.523 147.33 190.476C146.102 188.978 148.387 187.086 149.616 188.56Z" fill="#FA5F1C"/>
<path d="M72.5352 25.062C70.2009 22.2608 67.8667 19.4597 65.5324 16.6831C64.3038 15.2088 66.589 13.2923 67.8175 14.7666C70.1518 17.5677 72.4861 20.3688 74.8204 23.1454C76.0489 24.6197 73.7638 26.5363 72.5352 25.062Z" fill="#FA5F1C"/>
<path d="M50.4947 3.31627C48.7993 1.27684 47.1039 -0.737964 45.4085 -2.77739C44.1799 -4.25167 46.465 -6.16823 47.6936 -4.69395C49.389 -2.65453 51.0845 -0.639723 52.7799 1.3997C54.0085 2.89855 51.7233 4.79055 50.4947 3.31627Z" fill="#FA5F1C"/>
<path d="M64.0335 33.4655C62.5347 31.6964 61.0604 29.9026 59.5615 28.1335C58.333 26.6592 60.6181 24.7427 61.8467 26.2169C63.3455 27.9861 64.8198 29.7798 66.3186 31.549C67.5472 33.0232 65.2621 34.9398 64.0335 33.4655Z" fill="#FA5F1C"/>
<path d="M18.4291 6.80544C17.1514 5.28201 15.8737 3.75855 14.596 2.23512C13.3674 0.760842 15.6525 -1.15572 16.8811 0.318561C18.1588 1.84199 19.4365 3.36545 20.7142 4.88887C21.9673 6.36316 19.6822 8.27972 18.4291 6.80544Z" fill="#FA5F1C"/>
<path d="M51.3302 49.2648C49.8313 47.4957 48.357 45.702 46.8581 43.9328C45.6296 42.4585 47.9147 40.542 49.1433 42.0163C50.6422 43.7854 52.1164 45.5791 53.6153 47.3483C54.8438 48.8226 52.5587 50.7391 51.3302 49.2648Z" fill="#FA5F1C"/>
<path d="M38.3073 13.5134C40.0027 15.5528 41.6981 17.5677 43.3935 19.6071C44.6221 21.0814 42.337 22.998 41.1084 21.5237C39.413 19.4843 37.7175 17.4694 36.0221 15.4299C34.769 13.9557 37.0541 12.0391 38.3073 13.5134Z" fill="#FA5F1C"/>
<path d="M84.354 58.5528C82.8798 59.7813 80.9632 57.4962 82.4375 56.2677C83.9118 55.0391 85.8283 57.3242 84.354 58.5528Z" fill="#FA5F1C"/>
<path d="M60.397 66.2928C62.9524 69.3397 65.4833 72.3865 68.0387 75.4334C69.2672 76.9076 66.9821 78.8242 65.7535 77.3499C63.1981 74.3031 60.6673 71.2562 58.1118 68.2094C56.8587 66.7351 59.1439 64.8185 60.397 66.2928Z" fill="#FA5F1C"/>
<path d="M94.2318 74.2539C95.9272 76.2933 97.6226 78.3082 99.318 80.3477C100.547 81.8219 98.2615 83.7385 97.0329 82.2642C95.3375 80.2248 93.6421 78.2099 91.9466 76.1705C90.7181 74.6962 93.0032 72.7796 94.2318 74.2539Z" fill="#FA5F1C"/>
<path d="M69.6358 49.4859C70.2746 50.2476 70.9135 51.0093 71.5524 51.771C72.7809 53.2453 70.4958 55.1619 69.2672 53.6876C68.6284 52.9259 67.9895 52.1642 67.3506 51.4025C66.1221 49.9282 68.4072 48.0116 69.6358 49.4859Z" fill="#FA5F1C"/>
<path d="M108.581 55.7762C109.638 57.0539 110.695 58.307 111.776 59.5847C113.004 61.059 110.719 62.9756 109.491 61.5013C108.434 60.2236 107.377 58.9705 106.296 57.6928C105.068 56.2185 107.353 54.3019 108.581 55.7762Z" fill="#FA5F1C"/>
<path d="M84.7227 86.0973C86.4181 88.1367 88.1135 90.1516 89.8089 92.191C91.0375 93.6653 88.7524 95.5819 87.5238 94.1076C85.8284 92.0682 84.133 90.0533 82.4375 88.0139C81.1844 86.5396 83.4695 84.623 84.7227 86.0973Z" fill="#FA5F1C"/>
<path d="M86.0495 39.6574C86.9095 40.6648 87.7449 41.6968 88.6049 42.7042C89.8335 44.1785 87.5483 46.095 86.3198 44.6208C85.4598 43.6133 84.6243 42.5814 83.7643 41.5739C82.5358 40.0996 84.8209 38.1831 86.0495 39.6574Z" fill="#FA5F1C"/>
<path d="M79.8575 69.4379C80.9141 70.7156 81.9707 71.9688 83.0518 73.2465C84.2804 74.7208 81.9952 76.6373 80.7667 75.1631C79.7101 73.8853 78.6535 72.6322 77.5724 71.3544C76.3438 69.8802 78.6289 67.9636 79.8575 69.4379Z" fill="#FA5F1C"/>
<path d="M20.0016 28.8214C21.697 30.8609 23.3924 32.8757 25.0879 34.9152C26.3164 36.3894 24.0313 38.306 22.8028 36.8317C21.1073 34.7923 19.4119 32.7774 17.7165 30.738C16.4879 29.2637 18.773 27.3471 20.0016 28.8214Z" fill="#FA5F1C"/>
<path d="M31.5256 -13.1957C34.7199 -9.3871 37.8896 -5.57855 41.0838 -1.76999C42.3124 -0.295707 40.0273 1.62093 38.7987 0.146649C35.6044 -3.66191 32.4347 -7.47053 29.2404 -11.2791C27.9873 -12.7534 30.2724 -14.6699 31.5256 -13.1957Z" fill="#FA5F1C"/>
<path d="M40.9119 55.3831C42.6073 57.4225 44.3027 59.4374 45.9982 61.4768C47.2267 62.9511 44.9416 64.8676 43.713 63.3934C42.0176 61.3539 40.3222 59.3391 38.6267 57.2996C37.3982 55.8254 39.6833 53.9088 40.9119 55.3831Z" fill="#FA5F1C"/>
<path d="M94.6741 22.0889C95.9518 23.6124 97.2295 25.1358 98.5072 26.6592C99.7358 28.1335 97.4506 30.05 96.222 28.5757C94.9443 27.0523 93.6666 25.5289 92.3889 24.0055C91.1604 22.5312 93.4455 20.6147 94.6741 22.0889Z" fill="#FA5F1C"/>
<path d="M107.377 100.816C108.434 102.093 109.491 103.346 110.572 104.624C111.8 106.098 109.515 108.015 108.287 106.541C107.23 105.263 106.173 104.01 105.092 102.732C103.864 101.258 106.149 99.3413 107.377 100.816Z" fill="#FA5F1C"/>
<path d="M79.6363 8.74672C80.2752 9.50843 80.914 10.2701 81.5529 11.0318C82.7815 12.5061 80.4963 14.4227 79.2678 12.9484C78.6289 12.1867 77.9901 11.425 77.3512 10.6633C76.1226 9.189 78.4078 7.27244 79.6363 8.74672Z" fill="#FA5F1C"/>
<path d="M5.8485 5.67531C7.96163 8.20616 10.0994 10.7615 12.2125 13.2924C13.4411 14.7667 11.1559 16.6832 9.92735 15.2089C7.81421 12.6781 5.67651 10.1227 3.56338 7.59188C2.33481 6.11759 4.61993 4.20103 5.8485 5.67531Z" fill="#FA5F1C"/>
<path d="M35.1376 25.234C36.6364 27.0031 38.1107 28.7968 39.6096 30.5659C40.8382 32.0402 38.553 33.9568 37.3245 32.4825C35.8256 30.7133 34.3513 28.9197 32.8525 27.1505C31.6239 25.6762 33.909 23.7597 35.1376 25.234Z" fill="#FA5F1C"/>
<path d="M75.1152 98.6534C73.6409 99.8819 71.7243 97.5967 73.1986 96.3682C74.6975 95.1396 76.5895 97.4248 75.1152 98.6534Z" fill="#FA5F1C"/>
<path d="M42.5828 75.9739C45.1382 79.0207 47.669 82.0676 50.2245 85.1144C51.453 86.5887 49.1679 88.5053 47.9393 87.031C45.3839 83.9842 42.853 80.9373 40.2976 77.8905C39.069 76.4162 41.3542 74.4996 42.5828 75.9739Z" fill="#FA5F1C"/>
</g>
</svg>
